<svg width="227" height="346" viewBox="0 0 227 346" fill="none" xmlns="http://www.w3.org/2000/svg">
<g filter="url(#filter0_f_55_27867)">
<path d="M-139.33 217.52L-80.0242 23.9234C-79.0501 20.7435 -77.4277 17.8 -75.2594 15.2785C-68.7648 7.726 -58.2896 4.95332 -48.9092 8.30382L8.38312 28.7674C15.5835 31.3392 20.2645 38.3064 19.924 45.9447C19.5706 53.8709 24.6188 61.0342 32.2022 63.367L198.334 114.474C214.095 119.323 222.988 135.982 218.246 151.775L168.439 317.659C163.581 333.836 146.332 342.816 130.294 337.517L-120.058 254.793C-135.547 249.675 -144.108 233.118 -139.33 217.52Z" fill="#FA7168" fill-opacity="0.2"/>
<path d="M-139.33 217.52L-80.0242 23.9234C-79.0501 20.7435 -77.4277 17.8 -75.2594 15.2785C-68.7648 7.726 -58.2896 4.95332 -48.9092 8.30382L8.38312 28.7674C15.5835 31.3392 20.2645 38.3064 19.924 45.9447C19.5706 53.8709 24.6188 61.0342 32.2022 63.367L198.334 114.474C214.095 119.323 222.988 135.982 218.246 151.775L168.439 317.659C163.581 333.836 146.332 342.816 130.294 337.517L-120.058 254.793C-135.547 249.675 -144.108 233.118 -139.33 217.52Z" stroke="#D6D8D9"/>
</g>
<defs>
<filter id="filter0_f_55_27867" x="-147.554" y="-9.77516e-05" width="373.976" height="345.941" filterUnits="userSpaceOnUse" color-interpolation-filters="sRGB">
<feFlood flood-opacity="0" result="BackgroundImageFix"/>
<feBlend mode="normal" in="SourceGraphic" in2="BackgroundImageFix" result="shape"/>
<feGaussianBlur stdDeviation="3.2" result="effect1_foregroundBlur_55_27867"/>
</filter>
</defs>
</svg>
