<svg width="133" height="319" viewBox="0 0 133 319" fill="none" xmlns="http://www.w3.org/2000/svg">
<g filter="url(#filter0_f_55_27868)">
<path d="M74.9461 291.395L8.24407 100.22C7.14849 97.0802 6.71541 93.7473 6.97212 90.4315C7.74102 80.5003 14.5468 72.0684 24.092 69.221L82.3905 51.83C89.7174 49.6443 97.6129 52.4928 101.857 58.8529C106.26 65.4527 114.568 68.2421 122.062 65.6372L286.243 8.57106C301.818 3.15732 318.843 11.3291 324.362 26.8676L382.329 190.079C387.982 205.996 379.386 223.44 363.32 228.654L112.532 310.047C97.0164 315.083 80.3201 306.798 74.9461 291.395Z" fill="#B861D7" fill-opacity="0.2"/>
<path d="M74.9461 291.395L8.24407 100.22C7.14849 97.0802 6.71541 93.7473 6.97212 90.4315C7.74102 80.5003 14.5468 72.0684 24.092 69.221L82.3905 51.83C89.7174 49.6443 97.6129 52.4928 101.857 58.8529C106.26 65.4527 114.568 68.2421 122.062 65.6372L286.243 8.57106C301.818 3.15732 318.843 11.3291 324.362 26.8676L382.329 190.079C387.982 205.996 379.386 223.44 363.32 228.654L112.532 310.047C97.0164 315.083 80.3201 306.798 74.9461 291.395Z" stroke="#D6D8D9"/>
</g>
<defs>
<filter id="filter0_f_55_27868" x="0.00039053" y="-9.77516e-05" width="390.968" height="318.42" filterUnits="userSpaceOnUse" color-interpolation-filters="sRGB">
<feFlood flood-opacity="0" result="BackgroundImageFix"/>
<feBlend mode="normal" in="SourceGraphic" in2="BackgroundImageFix" result="shape"/>
<feGaussianBlur stdDeviation="3.2" result="effect1_foregroundBlur_55_27868"/>
</filter>
</defs>
</svg>
